# Blender 3.6.2
# www.blender.org
mtllib celestial.mtl
o Cube.002
v 1.683039 26.976509 -7.569187
v 3.865973 11.344875 -6.356000
v 1.683039 26.976509 -12.464933
v 3.865972 11.344875 -12.464933
v 2.855498 27.007561 -9.210597
v 4.030578 16.695255 -5.502352
v 5.038432 10.172417 -9.210597
v 4.030579 16.695255 -11.850930
v -1.484401 27.756613 -13.178074
v -1.484407 10.172419 -13.178074
v -1.484401 27.756613 -6.856046
v -1.484407 10.172419 -6.131430
v -0.886927 16.695257 -4.925475
v -1.484401 28.455080 -10.235930
v -1.484408 8.924649 -9.210597
v 3.490835 14.020065 -4.942347
v 3.490835 14.020065 -12.093857
v -1.484406 13.433838 -13.155922
v -1.484406 13.433838 -3.837479
v 2.269267 21.835882 -6.457593
v 2.269267 21.835882 -12.350674
v 4.085754 22.422112 -9.210597
v -1.484403 22.422113 -13.348535
v -1.484405 18.129042 -5.352726
v -0.886927 16.695257 -4.460485
v -1.484405 16.695257 -4.174855
v 14.808807 17.945114 2.230441
v 16.181232 17.576450 2.316338
v 17.277067 18.115425 3.229630
v 18.027531 19.605392 2.977997
v 17.317123 20.113079 3.090552
v 15.396120 19.518446 3.376558
v 14.844164 18.904325 6.121731
v 16.076010 18.481663 6.090816
v 17.237799 19.091932 6.565027
v 17.931490 20.258186 5.828828
v 17.016304 20.984035 5.815032
v 16.238932 20.160898 6.739313
v 15.423422 15.582417 -2.424775
v 12.306465 14.136572 -3.481578
v 8.983595 15.392825 -3.430738
v 13.564016 19.061659 -1.906660
v 17.099545 18.393780 -4.469280
v 14.902651 19.855122 -2.080211
v 16.111706 16.788067 4.147187
v 13.726877 17.541454 4.130674
v 15.979189 19.985312 5.657762
v 17.988113 21.473120 4.299548
v 19.563665 20.258896 4.245075
v 18.234907 17.880096 5.309534
v 9.165810 11.520487 -4.654310
v 5.898026 10.152876 -8.076089
v 7.217297 15.852414 -6.993161
v 11.188959 8.173110 -7.995882
v 8.006472 12.870399 -5.161576
v 12.962078 14.274654 -9.067545
v 4.897089 14.766516 -8.909968
v 4.452203 14.020065 -8.880591
v 5.851995 10.213018 -11.656437
v 10.818113 9.232724 -9.551004
v 6.427913 13.609061 -9.069021
v 1.126069 -1.381569 -10.006635
v 0.730479 5.525985 -11.408854
v 1.126069 -0.513113 -5.359590
v 0.730479 7.344543 -7.327618
v 1.823813 6.479239 -9.981934
v -1.484408 6.115866 -12.288904
v 1.109815 2.878682 -5.015031
v 1.408281 0.548677 -10.207441
v -1.484411 -1.083958 -4.526343
v -1.484407 8.322755 -6.129739
v 1.701417 -1.813877 -8.432089
v -1.484411 -2.214813 -10.577479
v -1.484411 -3.287184 -8.156753
v 2.419790 2.781346 -9.053584
v -1.484408 6.879827 -10.056796
v -1.484410 0.262814 -11.737083
v 1.207567 2.264184 -4.762690
v 1.678634 -0.573059 -10.588007
v 2.590063 0.509924 -8.759117
v -1.484411 -1.215832 -11.794445
v -0.996041 3.069934 -4.000405
v -1.017840 2.133983 -3.932514
v -1.484410 1.478440 -3.576655
v -1.484409 3.737677 -3.936323
v 1.545636 3.475740 -5.337926
v 1.757525 1.655865 -4.860264
v -0.713590 2.168756 -4.171243
v -0.697626 2.854168 -4.220960
v 0.844523 2.714110 -4.963986
v 0.916109 2.264105 -4.779192
v -0.190745 7.531249 -9.765228
v -0.190745 6.548540 -12.719280
v -1.484408 7.531249 -9.765228
v -1.484408 6.548540 -12.737458
v 0.031269 8.082456 -10.495103
v 0.031269 8.926163 -11.954178
v -1.484408 9.155484 -12.660181
v -1.484408 8.242182 -10.205159
v 16.960340 18.237801 2.440341
v 13.813473 18.064196 1.439997
v 17.868971 19.953552 1.882366
v 15.519163 17.543873 1.502528
v 15.083076 19.995579 2.650694
v 16.904572 20.624186 2.383903
v -4.651843 26.976511 -7.569187
v -6.834786 11.344879 -6.356000
v -4.651843 26.976511 -12.464933
v -6.834786 11.344879 -12.464933
v -5.824301 27.007563 -9.210597
v -6.999388 16.695259 -5.502352
v -8.007246 10.172421 -9.210597
v -6.999389 16.695259 -11.850930
v -2.081883 16.695257 -4.925475
v -6.459647 14.020069 -4.942347
v -6.459647 14.020069 -12.093857
v -5.238073 21.835884 -6.457593
v -5.238074 21.835884 -12.350674
v -7.054560 22.422115 -9.210597
v -2.081883 16.695257 -4.460485
v -17.777618 17.945124 2.230441
v -19.150043 17.576462 2.316338
v -20.245878 18.115437 3.229630
v -20.996342 19.605406 2.977997
v -20.285931 20.113092 3.090552
v -18.364931 19.518457 3.376558
v -17.812975 18.904335 6.121731
v -19.044821 18.481674 6.090816
v -20.206610 19.091946 6.565027
v -20.900297 20.258198 5.828828
v -19.985111 20.984049 5.815032
v -19.207739 20.160910 6.739313
v -18.392233 15.582428 -2.424775
v -15.275278 14.136580 -3.481578
v -11.952404 15.392832 -3.430738
v -16.532825 19.061668 -1.906660
v -20.068356 18.393793 -4.469280
v -17.871458 19.855131 -2.080211
v -19.080517 16.788078 4.147187
v -16.695688 17.541466 4.130674
v -18.947996 19.985323 5.657762
v -20.956921 21.473133 4.299548
v -22.532473 20.258911 4.245075
v -21.203718 17.880108 5.309534
v -12.134624 11.520494 -4.654310
v -8.866840 10.152881 -8.076089
v -10.186108 15.852420 -6.993161
v -14.157774 8.173118 -7.995882
v -10.975283 12.870405 -5.161576
v -15.930889 14.274664 -9.067545
v -7.865900 14.766521 -8.909968
v -7.421015 14.020069 -8.880591
v -8.820809 10.213022 -11.656437
v -13.786928 9.232732 -9.551004
v -9.396725 13.609066 -9.069021
v -4.094891 -1.381569 -10.006635
v -3.699296 5.525987 -11.408854
v -4.094891 -0.513113 -5.359590
v -3.699295 7.344544 -7.327618
v -4.792629 6.479241 -9.981934
v -4.078634 2.878684 -5.015031
v -4.377101 0.548677 -10.207441
v -4.670238 -1.813873 -8.432089
v -5.388608 2.781348 -9.053584
v -4.176386 2.264186 -4.762690
v -4.647455 -0.573055 -10.588007
v -5.558882 0.509928 -8.759117
v -1.972778 3.069934 -4.000405
v -1.950979 2.133983 -3.932514
v -4.514454 3.475742 -5.337926
v -4.726345 1.655867 -4.860264
v -2.153123 2.168756 -4.171243
v -2.169087 2.854168 -4.220960
v -3.711236 2.714112 -4.963986
v -3.782822 2.264107 -4.779192
v -2.778071 7.531249 -9.765228
v -2.778071 6.548540 -12.719280
v -3.000084 8.082458 -10.495103
v -3.000085 8.926165 -11.954178
v -19.929152 18.237814 2.440341
v -16.782282 18.064205 1.439997
v -20.837778 19.953564 1.882366
v -18.487974 17.543884 1.502528
v -18.051884 19.995590 2.650694
v -19.873379 20.624197 2.383903
vn 0.2390 -0.0065 -0.9710
vn 0.1565 0.0751 -0.9848
vn 0.1948 -0.5107 0.8374
vn 0.0873 0.2349 0.9681
vn 0.3163 0.9334 -0.1697
vn 0.2711 0.9415 0.2001
vn 0.2074 -0.9169 -0.3410
vn 0.1901 -0.8953 0.4028
vn 0.1491 0.2379 0.9598
vn 0.1787 0.1784 0.9676
vn 0.2434 0.0188 -0.9697
vn 0.8881 0.1608 -0.4306
vn 0.7936 0.2133 0.5698
vn 0.9836 -0.1802 -0.0000
vn 0.9231 0.3847 -0.0000
vn 0.3465 0.5955 0.7248
vn 0.4294 0.0929 0.8983
vn 0.2662 0.0290 0.9635
vn -0.6823 0.7242 -0.0997
vn -0.2364 -0.7348 0.6358
vn -0.2486 -0.4467 0.8595
vn -0.1448 -0.3442 0.9277
vn 0.4220 0.3763 0.8248
vn 0.5217 0.6585 0.5424
vn 0.0415 -0.7329 0.6790
vn -0.6985 0.7142 -0.0446
vn 0.7197 -0.0592 0.6917
vn -0.0450 0.7867 -0.6158
vn -0.6675 0.1718 0.7245
vn -0.2686 -0.3017 0.9148
vn 0.8739 -0.4223 -0.2407
vn 0.1201 -0.6134 0.7806
vn -0.5309 0.7154 -0.4543
vn 0.7074 -0.5367 -0.4600
vn -0.7790 0.6187 -0.1023
vn 0.5864 -0.7410 -0.3272
vn 0.3550 0.5450 -0.7596
vn -0.2572 -0.8947 -0.3652
vn -0.5302 0.8144 -0.2358
vn 0.9552 0.0635 0.2891
vn 0.9076 -0.2397 -0.3447
vn 0.9113 0.2175 0.3495
vn -0.3972 -0.6562 0.6416
vn 0.9446 0.1694 -0.2810
vn 0.9320 -0.2184 0.2893
vn 0.9156 0.1610 -0.3684
vn 0.5226 -0.1416 -0.8408
vn -0.0656 0.6453 -0.7611
vn -0.9681 0.1940 0.1585
vn -0.9877 0.1558 0.0153
vn -0.2349 -0.9535 -0.1888
vn 0.3593 -0.8551 -0.3738
vn 0.3723 -0.8090 0.4549
vn 0.3582 -0.3168 0.8783
vn 0.4806 0.4257 0.7667
vn 0.9383 0.2620 0.2257
vn 0.9021 -0.3165 0.2933
vn 0.8397 -0.4668 -0.2776
vn 0.7938 -0.0325 -0.6073
vn 0.2339 0.8514 -0.4695
vn 0.1731 0.9380 -0.3002
vn 0.4178 -0.1196 -0.9006
vn 0.3666 -0.7101 -0.6011
vn 0.3795 0.1919 -0.9051
vn 0.7711 0.1160 -0.6261
vn 0.9740 0.1264 0.1878
vn -0.0526 0.3722 0.9267
vn 0.4010 0.1188 0.9084
vn 0.4315 0.1980 0.8801
vn 0.3760 0.3097 0.8733
vn 0.3423 0.2098 0.9159
vn 0.3860 0.2047 0.8995
vn 0.6137 0.0429 0.7884
vn -0.0079 0.9909 0.1343
vn 0.3810 -0.3485 0.8564
vn 0.1140 0.6645 0.7386
vn 0.9887 -0.1499 0.0047
vn 0.2582 0.1498 -0.9544
vn 0.0608 0.9106 0.4088
vn -0.0022 -0.9492 0.3148
vn 0.3462 0.8949 -0.2814
vn -0.4117 0.9113 -0.0114
vn -0.2546 -0.7163 0.6496
vn 0.8700 -0.4930 0.0064
vn 0.2218 -0.8745 0.4314
vn -0.7278 0.6405 0.2452
vn 0.2820 0.5451 -0.7895
vn -0.1473 -0.0658 -0.9869
vn -0.2390 -0.0065 -0.9710
vn -0.1565 0.0751 -0.9848
vn -0.1948 -0.5107 0.8374
vn -0.0873 0.2349 0.9681
vn -0.3163 0.9334 -0.1697
vn -0.2711 0.9415 0.2001
vn -0.2074 -0.9169 -0.3410
vn -0.1901 -0.8953 0.4028
vn -0.1491 0.2379 0.9598
vn -0.1787 0.1784 0.9676
vn -0.2434 0.0188 -0.9697
vn -0.8881 0.1608 -0.4306
vn -0.7936 0.2133 0.5698
vn -0.9836 -0.1802 -0.0000
vn -0.9231 0.3847 -0.0000
vn -0.3465 0.5955 0.7248
vn -0.4294 0.0929 0.8983
vn -0.2662 0.0290 0.9635
vn 0.6823 0.7242 -0.0997
vn 0.2364 -0.7348 0.6358
vn 0.2486 -0.4467 0.8595
vn 0.1448 -0.3442 0.9277
vn -0.4220 0.3763 0.8248
vn -0.5217 0.6585 0.5424
vn -0.0415 -0.7329 0.6790
vn 0.6985 0.7142 -0.0446
vn -0.7197 -0.0592 0.6917
vn 0.0450 0.7867 -0.6158
vn 0.6675 0.1718 0.7245
vn 0.2686 -0.3017 0.9148
vn -0.8739 -0.4223 -0.2407
vn -0.1201 -0.6134 0.7806
vn 0.5309 0.7154 -0.4543
vn -0.7074 -0.5367 -0.4600
vn 0.7790 0.6187 -0.1023
vn -0.5864 -0.7410 -0.3272
vn -0.3550 0.5450 -0.7596
vn 0.2572 -0.8947 -0.3652
vn 0.5302 0.8144 -0.2358
vn -0.9552 0.0635 0.2891
vn -0.9076 -0.2397 -0.3447
vn -0.9113 0.2175 0.3495
vn 0.3972 -0.6562 0.6416
vn -0.9446 0.1694 -0.2810
vn -0.9320 -0.2184 0.2893
vn -0.9156 0.1610 -0.3684
vn -0.5226 -0.1416 -0.8408
vn 0.0656 0.6453 -0.7611
vn 0.9681 0.1940 0.1585
vn 0.9877 0.1558 0.0153
vn 0.2349 -0.9535 -0.1888
vn -0.3593 -0.8551 -0.3738
vn -0.3723 -0.8090 0.4549
vn -0.3582 -0.3168 0.8783
vn -0.4806 0.4257 0.7667
vn -0.9383 0.2620 0.2257
vn -0.9021 -0.3165 0.2933
vn -0.8397 -0.4668 -0.2776
vn -0.7938 -0.0325 -0.6073
vn -0.2339 0.8514 -0.4695
vn -0.1731 0.9380 -0.3002
vn -0.4178 -0.1196 -0.9006
vn -0.3666 -0.7101 -0.6011
vn -0.3795 0.1919 -0.9051
vn -0.7711 0.1160 -0.6261
vn -0.9740 0.1264 0.1878
vn 0.0389 0.3743 0.9265
vn -0.4010 0.1188 0.9084
vn -0.4315 0.1980 0.8801
vn -0.3760 0.3097 0.8733
vn -0.3423 0.2098 0.9159
vn -0.3860 0.2047 0.8995
vn -0.7607 0.0293 0.6484
vn 0.0060 0.9903 0.1391
vn -0.3368 -0.5055 0.7943
vn -0.1140 0.6645 0.7386
vn -0.9887 -0.1499 0.0047
vn -0.2582 0.1498 -0.9544
vn -0.0608 0.9106 0.4088
vn 0.0022 -0.9492 0.3148
vn -0.3462 0.8949 -0.2814
vn 0.4117 0.9113 -0.0114
vn 0.2546 -0.7163 0.6496
vn -0.8700 -0.4930 0.0064
vn -0.2218 -0.8745 0.4314
vn 0.7278 0.6405 0.2452
vn -0.2820 0.5451 -0.7895
vn 0.1473 -0.0658 -0.9869
vt 0.206269 0.844835
vt 0.244888 0.843526
vt 0.233248 0.935637
vt 0.206739 0.926194
vt 0.200062 0.871855
vt 0.203095 0.816747
vt 0.248429 0.810045
vt 0.779788 0.635585
vt 0.810357 0.600429
vt 0.848672 0.629952
vt 0.829377 0.659234
vt 0.769464 0.689196
vt 0.778706 0.674411
vt 0.828263 0.688907
vt 0.798357 0.738981
vt 0.069001 0.862034
vt 0.099329 0.845321
vt 0.111065 0.892982
vt 0.069001 0.915310
vt 0.121845 0.942532
vt 0.086438 0.937313
vt 0.861031 0.489182
vt 0.872038 0.432531
vt 0.910900 0.416402
vt 0.910900 0.484099
vt 0.838973 0.558431
vt 0.889305 0.604915
vt 0.745864 0.788391
vt 0.780257 0.792665
vt 0.205453 0.979505
vt 0.228454 0.990483
vt 0.374946 0.985227
vt 0.375498 0.936881
vt 0.426798 0.932453
vt 0.428853 0.985858
vt 0.346097 0.986182
vt 0.327184 0.932843
vt 0.000000 0.315947
vt 0.109538 0.390394
vt 0.199492 0.845132
vt 0.200062 -0.000000
vt 0.200062 0.417503
vt 0.749744 0.656464
vt 0.747480 0.648727
vt 0.821846 0.236412
vt 0.841394 0.233775
vt 0.592692 0.776055
vt 0.610039 0.770716
vt 0.893782 0.664800
vt 0.917812 0.673356
vt 0.921684 0.691138
vt 0.907818 0.682481
vt 0.964981 0.262647
vt 0.940535 0.257755
vt 0.953820 0.222967
vt 0.966708 0.224790
vt 0.907745 0.619562
vt 0.921350 0.591172
vt 0.932171 0.297932
vt 0.924226 0.276549
vt 0.946106 0.209263
vt 0.958690 0.204985
vt 0.157580 0.845132
vt 0.172085 0.846236
vt 0.167134 0.863269
vt 0.155220 0.861652
vt 0.175290 0.884448
vt 0.155220 0.880955
vt 0.927869 0.228848
vt 0.935761 0.634955
vt 0.932081 0.672982
vt 0.802697 0.283589
vt 0.831785 0.275364
vt 0.821611 0.301828
vt 0.805882 0.309216
vt 0.551452 0.571146
vt 0.621113 0.583851
vt 0.584870 0.699762
vt 0.547336 0.668627
vt 0.802697 0.278301
vt 0.702492 0.365521
vt 0.772836 0.022131
vt 0.802697 0.000000
vt 0.695057 0.241702
vt 0.652599 0.238843
vt 0.603514 0.149436
vt 0.692875 0.149171
vt 0.802697 0.041202
vt 0.866620 0.047728
vt 0.871269 0.130416
vt 0.831479 0.152389
vt 0.574542 0.366237
vt 0.547336 0.081893
vt 0.819861 0.253727
vt 0.835237 0.255075
vt 0.910622 0.635455
vt 0.920349 0.611687
vt 0.932230 0.278099
vt 0.927210 0.259086
vt 0.585793 0.791333
vt 0.594304 0.791778
vt 0.597798 0.816628
vt 0.579819 0.818239
vt 0.945793 0.282278
vt 0.612779 0.786433
vt 0.621113 0.823899
vt 0.893782 0.645923
vt 0.422579 0.850934
vt 0.419328 0.877906
vt 0.370175 0.857419
vt 0.369164 0.850191
vt 0.312015 0.878326
vt 0.374788 0.810045
vt 0.428853 0.823044
vt 0.301693 0.851407
vt 0.823663 0.022099
vt 0.850078 0.000000
vt 0.595158 0.491625
vt 0.611883 0.542923
vt 0.784953 0.373959
vt 0.732251 0.491625
vt 0.596875 0.432463
vt 0.750697 0.896333
vt 0.776614 0.896333
vt 0.776614 0.922249
vt 0.750697 0.922249
vt 0.776614 0.948166
vt 0.750697 0.948166
vt 0.711822 0.974083
vt 0.724780 0.974083
vt 0.724780 1.000000
vt 0.711822 1.000000
vt 0.672947 0.974083
vt 0.698863 0.974083
vt 0.698863 1.000000
vt 0.672947 1.000000
vt 0.672947 0.792665
vt 0.698863 0.792665
vt 0.698863 0.818582
vt 0.672947 0.818582
vt 0.711822 0.792665
vt 0.724780 0.792665
vt 0.724780 0.818582
vt 0.711822 0.818582
vt 0.724780 0.844499
vt 0.711822 0.844499
vt 0.698863 0.844499
vt 0.672947 0.844499
vt 0.621113 0.896333
vt 0.647030 0.896333
vt 0.647030 0.922249
vt 0.621113 0.922249
vt 0.647030 0.948166
vt 0.621113 0.948166
vt 0.698863 0.870416
vt 0.672947 0.870416
vt 0.724780 0.870416
vt 0.711822 0.870416
vt 0.707551 0.995975
vt 0.703139 0.995920
vt 0.708027 0.978105
vt 0.702656 0.978161
vt 0.861031 0.484621
vt 0.802697 0.489182
vt 0.802697 0.309216
vt 0.844773 0.310203
vt 0.616338 0.892901
vt 0.616337 0.915901
vt 0.547336 0.915901
vt 0.547336 0.892901
vt 0.845615 0.792665
vt 0.868616 0.792665
vt 0.868616 0.930668
vt 0.845615 0.930668
vt 0.868616 0.999670
vt 0.845615 0.999670
vt 0.579222 0.770367
vt 0.596745 0.694449
vt 0.966708 0.398925
vt 0.931883 0.394168
vt 0.949367 0.302209
vt 0.909745 0.361292
vt 0.893782 0.542441
vt 0.926208 0.491625
s 0
f 17/1/1 18/2/1 23/3/1 21/4/1 8/5/1
f 17/1/2 4/6/2 10/7/2 18/2/2
f 19/8/3 12/9/3 2/10/3 16/11/3
f 24/12/4 13/13/4 6/14/4 20/15/4
f 3/16/5 9/17/5 14/18/5 5/19/5
f 5/19/6 14/18/6 11/20/6 1/21/6
f 10/22/7 4/23/7 7/24/7 15/25/7
f 15/26/8 7/27/8 2/10/8 12/9/8
f 13/13/9 19/8/9 16/11/9 6/14/9
f 11/28/10 24/12/10 20/15/10 1/29/10
f 3/30/11 21/4/11 23/3/11 9/31/11
f 5/32/12 22/33/12 21/34/12 3/35/12
f 1/36/13 20/37/13 22/33/13 5/32/13
f 13/38/14 25/39/14 19/40/14
f 13/38/15 24/41/15 25/39/15
f 25/39/16 24/41/16 26/42/16
f 25/43/17 26/44/17 19/8/17
f 100/45/18 102/46/18 105/47/18 104/48/18
f 48/49/19 47/50/19 38/51/19 37/52/19
f 46/53/20 45/54/20 34/55/20 33/56/20
f 104/57/21 101/58/21 103/59/21 100/60/21
f 33/56/22 34/55/22 35/61/22 38/62/22
f 38/63/23 35/64/23 36/65/23 37/66/23
f 49/67/24 48/68/24 37/66/24 36/65/24
f 45/54/25 50/69/25 35/61/25 34/55/25
f 47/50/26 46/70/26 33/71/26 38/51/26
f 50/72/27 49/73/27 36/74/27 35/75/27
f 56/76/28 53/77/28 44/78/28 43/79/28
f 53/80/29 52/81/29 42/82/29 44/83/29
f 55/84/30 51/85/30 40/86/30 41/87/30
f 54/88/31 56/89/31 43/90/31 39/91/31
f 51/85/32 54/92/32 39/93/32 40/86/32
f 52/81/33 55/84/33 41/87/33 42/82/33
f 29/94/34 30/95/34 49/73/34 50/72/34
f 32/96/35 27/97/35 46/70/35 47/50/35
f 28/98/36 29/99/36 50/69/36 45/54/36
f 30/100/37 31/101/37 48/102/37 49/103/37
f 27/104/38 28/98/38 45/54/38 46/53/38
f 31/101/39 32/105/39 47/106/39 48/102/39
f 16/11/40 2/10/40 7/27/40 58/107/40
f 17/108/41 8/109/41 57/110/41 58/111/41
f 20/37/42 6/112/42 57/110/42 22/33/42
f 55/84/43 52/81/43 54/92/43 51/85/43
f 58/111/44 7/113/44 4/114/44 17/108/44
f 58/111/45 57/110/45 6/112/45 16/115/45
f 22/33/46 57/110/46 8/109/46 21/34/46
f 56/89/47 54/88/47 60/116/47 59/117/47
f 53/77/48 56/76/48 59/118/48 61/119/48
f 53/80/49 61/120/49 52/81/49
f 61/120/50 59/121/50 52/81/50
f 54/92/51 52/81/51 59/121/51 60/122/51
f 73/123/52 62/124/52 72/125/52 74/126/52
f 74/126/53 72/125/53 64/127/53 70/128/53
f 84/129/54 70/130/54 64/131/54 87/132/54
f 71/133/55 85/134/55 86/135/55 65/136/55
f 65/137/56 86/138/56 75/139/56 66/140/56
f 87/141/57 64/142/57 72/143/57 80/144/57
f 80/144/58 72/143/58 62/145/58 79/146/58
f 66/140/59 75/139/59 69/147/59 63/148/59
f 63/149/60 67/150/60 76/151/60 66/152/60
f 66/152/61 76/151/61 71/153/61 65/154/61
f 63/148/62 69/147/62 77/155/62 67/156/62
f 79/146/63 62/145/63 73/157/63 81/158/63
f 69/147/64 79/146/64 81/158/64 77/155/64
f 75/139/65 80/144/65 79/146/65 69/147/65
f 86/138/66 87/141/66 80/144/66 75/139/66
f 78/159/67 68/160/67 90/160/67 91/159/67
f 83/161/68 82/162/68 85/134/68 84/129/68
f 82/162/69 68/160/69 86/135/69 85/134/69
f 68/160/70 78/159/70 87/132/70 86/135/70
f 78/159/71 83/161/71 84/129/71 87/132/71
f 89/163/72 88/164/72 91/165/72 90/166/72
f 82/162/73 83/161/73 88/161/73 89/162/73
f 83/161/74 78/159/74 91/159/74 88/161/74
f 68/160/75 82/162/75 89/162/75 90/160/75
f 99/167/76 94/168/76 92/169/76 96/170/76
f 96/171/77 92/172/77 93/173/77 97/174/77
f 97/174/78 93/173/78 95/175/78 98/176/78
f 97/174/79 98/176/79 99/167/79 96/171/79
f 94/168/80 95/175/80 93/173/80 92/172/80
f 43/79/81 44/78/81 105/47/81 102/177/81
f 44/78/82 42/178/82 104/48/82 105/47/82
f 41/179/83 40/180/83 103/59/83 101/181/83
f 39/91/84 43/90/84 102/46/84 100/45/84
f 40/180/85 39/182/85 100/60/85 103/59/85
f 42/183/86 41/184/86 101/58/86 104/57/86
f 27/97/87 32/96/87 29/99/87 28/98/87
f 30/100/88 29/99/88 32/105/88 31/101/88
f 116/1/89 113/5/89 118/4/89 23/3/89 18/2/89
f 116/1/90 18/2/90 10/7/90 109/6/90
f 19/8/91 115/11/91 107/10/91 12/9/91
f 24/12/92 117/15/92 111/14/92 114/13/92
f 108/16/93 110/19/93 14/18/93 9/17/93
f 110/19/94 106/21/94 11/20/94 14/18/94
f 10/22/95 15/25/95 112/24/95 109/23/95
f 15/26/96 12/9/96 107/10/96 112/27/96
f 114/13/97 111/14/97 115/11/97 19/8/97
f 11/28/98 106/29/98 117/15/98 24/12/98
f 108/30/99 9/31/99 23/3/99 118/4/99
f 110/32/100 108/35/100 118/34/100 119/33/100
f 106/36/101 110/32/101 119/33/101 117/37/101
f 114/38/102 19/40/102 120/39/102
f 114/38/103 120/39/103 24/41/103
f 120/39/104 26/42/104 24/41/104
f 120/43/105 19/8/105 26/44/105
f 180/45/106 184/48/106 185/47/106 182/46/106
f 142/49/107 131/52/107 132/51/107 141/50/107
f 140/53/108 127/56/108 128/55/108 139/54/108
f 184/57/109 180/60/109 183/59/109 181/58/109
f 127/56/110 132/62/110 129/61/110 128/55/110
f 132/63/111 131/66/111 130/65/111 129/64/111
f 143/67/112 130/65/112 131/66/112 142/68/112
f 139/54/113 128/55/113 129/61/113 144/69/113
f 141/50/114 132/51/114 127/71/114 140/70/114
f 144/72/115 129/75/115 130/74/115 143/73/115
f 150/76/116 137/79/116 138/78/116 147/77/116
f 147/80/117 138/83/117 136/82/117 146/81/117
f 149/84/118 135/87/118 134/86/118 145/85/118
f 148/88/119 133/91/119 137/90/119 150/89/119
f 145/85/120 134/86/120 133/93/120 148/92/120
f 146/81/121 136/82/121 135/87/121 149/84/121
f 123/94/122 144/72/122 143/73/122 124/95/122
f 126/96/123 141/50/123 140/70/123 121/97/123
f 122/98/124 139/54/124 144/69/124 123/99/124
f 124/100/125 143/103/125 142/102/125 125/101/125
f 121/104/126 140/53/126 139/54/126 122/98/126
f 125/101/127 142/102/127 141/106/127 126/105/127
f 115/11/128 152/107/128 112/27/128 107/10/128
f 116/108/129 152/111/129 151/110/129 113/109/129
f 117/37/130 119/33/130 151/110/130 111/112/130
f 149/84/131 145/85/131 148/92/131 146/81/131
f 152/111/132 116/108/132 109/114/132 112/113/132
f 152/111/133 115/115/133 111/112/133 151/110/133
f 119/33/134 118/34/134 113/109/134 151/110/134
f 150/89/135 153/117/135 154/116/135 148/88/135
f 147/77/136 155/119/136 153/118/136 150/76/136
f 147/80/137 146/81/137 155/120/137
f 155/120/138 146/81/138 153/121/138
f 148/92/139 154/122/139 153/121/139 146/81/139
f 73/123/140 74/126/140 163/125/140 156/124/140
f 74/126/141 70/128/141 158/127/141 163/125/141
f 84/129/142 171/132/142 158/131/142 70/130/142
f 71/133/143 159/136/143 170/135/143 85/134/143
f 159/137/144 160/140/144 164/139/144 170/138/144
f 171/141/145 167/144/145 163/143/145 158/142/145
f 167/144/146 166/146/146 156/145/146 163/143/146
f 160/140/147 157/148/147 162/147/147 164/139/147
f 157/149/148 160/152/148 76/151/148 67/150/148
f 160/152/149 159/154/149 71/153/149 76/151/149
f 157/148/150 67/156/150 77/155/150 162/147/150
f 166/146/151 81/158/151 73/157/151 156/145/151
f 162/147/152 77/155/152 81/158/152 166/146/152
f 164/139/153 162/147/153 166/146/153 167/144/153
f 170/138/154 164/139/154 167/144/154 171/141/154
f 165/159/155 175/159/155 174/160/155 161/160/155
f 169/161/156 84/129/156 85/134/156 168/162/156
f 168/162/157 85/134/157 170/135/157 161/160/157
f 161/160/158 170/135/158 171/132/158 165/159/158
f 165/159/159 171/132/159 84/129/159 169/161/159
f 173/163/160 174/166/160 175/165/160 172/164/160
f 168/162/161 173/162/161 172/161/161 169/161/161
f 169/161/162 172/161/162 175/159/162 165/159/162
f 161/160/163 174/160/163 173/162/163 168/162/163
f 99/167/164 178/170/164 176/169/164 94/168/164
f 178/171/165 179/174/165 177/173/165 176/172/165
f 179/174/166 98/176/166 95/175/166 177/173/166
f 179/174/167 178/171/167 99/167/167 98/176/167
f 94/168/168 176/172/168 177/173/168 95/175/168
f 137/79/169 182/177/169 185/47/169 138/78/169
f 138/78/170 185/47/170 184/48/170 136/178/170
f 135/179/171 181/181/171 183/59/171 134/180/171
f 133/91/172 180/45/172 182/46/172 137/90/172
f 134/180/173 183/59/173 180/60/173 133/182/173
f 136/183/174 184/57/174 181/58/174 135/184/174
f 121/97/175 122/98/175 123/99/175 126/96/175
f 124/100/176 125/101/176 126/105/176 123/99/176
